Coordinates
version=1
nRows=21
nColumns=38
inDegrees=no

Units are S.I. units (second, meters, Newtons, ...)
If the header above contains a line with 'inDegrees', this indicates whether rotational values are in degrees (yes) or radians (no).

endheader
time	pelvis_tilt	pelvis_list	pelvis_rotation	pelvis_tx	pelvis_ty	pelvis_tz	hip_flexion_r	hip_adduction_r	hip_rotation_r	knee_angle_r	ankle_angle_r	subtalar_angle_r	mtp_angle_r	hip_flexion_l	hip_adduction_l	hip_rotation_l	knee_angle_l	ankle_angle_l	subtalar_angle_l	mtp_angle_l	lumbar_extension	lumbar_bending	lumbar_rotation	arm_flex_r	arm_add_r	arm_rot_r	elbow_flex_r	pro_sup_r	wrist_flex_r	wrist_dev_r	arm_flex_l	arm_add_l	arm_rot_l	elbow_flex_l	pro_sup_l	wrist_flex_l	wrist_dev_l
3.33	0.141768	1.37599	-1.75384	0.727455	1.10149	0.962977	-0.390661	-0.0605661	-0.148521	0	0.0408487	0	0	-0.243857	0.0527509	-0.344232	0.114806	0.00765004	0	0	-0.66381	-0.0253141	0.050125	1.41344	-0.479325	1.56934	0.615192	0.499814	0	0	1.28362	-0.343712	1.06251	0.750471	0.93451	0	0
3.34	0.145603	1.37843	-1.75893	0.727476	1.10043	0.962749	-0.388945	-0.0615826	-0.147331	0	0.0415665	0	0	-0.242869	0.0536098	-0.343884	0.114013	0.00782982	0	0	-0.666781	-0.0262536	0.0505181	1.41736	-0.480491	1.57071	0.617751	0.50448	0	0	1.28386	-0.343807	1.05618	0.753115	0.938739	0	0
3.35	0.149834	1.38105	-1.76429	0.727511	1.09931	0.962498	-0.387064	-0.062613	-0.146257	0	0.0422788	0	0	-0.241481	0.0544087	-0.343565	0.113745	0.00847558	0	0	-0.669437	-0.027309	0.0502917	1.41913	-0.476718	1.56766	0.610552	0.510087	0	0	1.28369	-0.344133	1.04948	0.755297	0.943425	0	0
3.36	0.152923	1.38321	-1.76861	0.727518	1.09823	0.962263	-0.385661	-0.0634969	-0.145144	0	0.0429078	0	0	-0.240356	0.0549782	-0.343557	0.113969	0.00944562	0	0	-0.672734	-0.0285065	0.0504101	1.42051	-0.472722	1.56335	0.602071	0.514843	0	0	1.28378	-0.344082	1.04232	0.757139	0.947912	0	0
3.37	0.155448	1.38476	-1.7726	0.727483	1.09718	0.96204	-0.384885	-0.0644043	-0.143755	0	0.0438484	0	0	-0.239833	0.0555231	-0.343741	0.114251	0.0103476	0	0	-0.677178	-0.029855	0.0512071	1.42552	-0.474688	1.56989	0.606573	0.494404	0	0	1.2867	-0.345386	1.04471	0.761663	0.923154	0	0
3.38	0.158681	1.38649	-1.77748	0.727424	1.09616	0.961804	-0.383844	-0.0654749	-0.142069	0	0.0450763	0	0	-0.23889	0.05605	-0.344267	0.11494	0.0113453	0	0	-0.68149	-0.031599	0.0520478	1.42922	-0.476677	1.57016	0.609661	0.495573	0	0	1.28724	-0.345418	1.03663	0.764895	0.925277	0	0
3.39	0.161488	1.38822	-1.78195	0.727347	1.09513	0.961587	-0.382782	-0.0664287	-0.140455	0	0.0462052	0	0	-0.237957	0.0564873	-0.344732	0.115615	0.0120942	0	0	-0.685996	-0.0334946	0.052817	1.43164	-0.476311	1.56729	0.607682	0.497499	0	0	1.28726	-0.345736	1.02817	0.769052	0.928436	0	0
3.4	0.163018	1.38993	-1.78518	0.727262	1.09412	0.961406	-0.38172	-0.0671481	-0.138953	0	0.0468068	0	0	-0.236959	0.0566218	-0.345298	0.11666	0.0133086	0	0	-0.691024	-0.0351325	0.053783	1.43454	-0.478534	1.564	0.610895	0.500377	0	0	1.28737	-0.346005	1.02035	0.77319	0.932791	0	0
3.41	0.164132	1.39146	-1.78824	0.727116	1.09312	0.961228	-0.380699	-0.0678807	-0.137478	0	0.0466018	0	0	-0.236102	0.0567192	-0.346041	0.117769	0.0146743	0	0	-0.696437	-0.0372001	0.0547929	1.43591	-0.47746	1.55675	0.607622	0.504098	0	0	1.28713	-0.346431	1.01184	0.778053	0.938285	0	0
3.42	0.165776	1.39269	-1.79186	0.726929	1.09215	0.96102	-0.380079	-0.0686772	-0.135452	0	0.0470066	0	0	-0.235436	0.0569402	-0.346358	0.118962	0.015841	0	0	-0.702423	-0.0397175	0.0558025	1.43706	-0.477749	1.54717	0.606685	0.508588	0	0	1.28663	-0.346531	1.00218	0.783307	0.944794	0	0
3.43	0.168269	1.39396	-1.79605	0.72678	1.09121	0.960832	-0.3795	-0.0695327	-0.133447	0	0.047929	0	0	-0.234243	0.0571229	-0.346827	0.120954	0.0171773	0	0	-0.708617	-0.0423273	0.0560656	1.43726	-0.475534	1.5354	0.601752	0.515871	0	0	1.28612	-0.34698	0.993087	0.788481	0.952425	0	0
3.44	0.169178	1.39478	-1.79869	0.726629	1.09034	0.960719	-0.379324	-0.0702077	-0.131471	0	0.0488492	0	0	-0.233227	0.0569916	-0.347712	0.123507	0.0186187	0	0	-0.71618	-0.0446674	0.0566464	1.43842	-0.479813	1.52233	0.609717	0.524298	0	0	1.28596	-0.34784	0.984024	0.794872	0.960361	0	0
3.45	0.169511	1.3957	-1.80074	0.726429	1.08947	0.960623	-0.379044	-0.0706592	-0.129574	0	0.0496441	0	0	-0.231975	0.0566582	-0.34856	0.126254	0.0199076	0	0	-0.72406	-0.0471892	0.0567159	1.43807	-0.480772	1.50627	0.611763	0.531974	0	0	1.2858	-0.349326	0.974922	0.802142	0.968031	0	0
3.46	0.16855	1.39585	-1.8016	0.72619	1.08873	0.960542	-0.379429	-0.0710963	-0.127783	0	0.0498798	0	0	-0.2314	0.0562689	-0.349457	0.12921	0.0212576	0	0	-0.733581	-0.0497536	0.057232	1.43845	-0.487785	1.48984	0.625074	0.537897	0	0	1.28655	-0.350167	0.966212	0.808746	0.976018	0	0
3.47	0.169015	1.39595	-1.80386	0.725917	1.08801	0.960468	-0.379805	-0.0717672	-0.125954	0	0.0505319	0	0	-0.230749	0.0560667	-0.350421	0.132171	0.0222639	0	0	-0.742949	-0.0530142	0.0565179	1.43497	-0.480226	1.46623	0.611082	0.545972	0	0	1.28693	-0.351356	0.957878	0.814374	0.984234	0	0
3.48	0.169303	1.39584	-1.80574	0.725631	1.08735	0.960433	-0.380436	-0.0723151	-0.124235	0	0.0515357	0	0	-0.230112	0.0557362	-0.351576	0.135377	0.0232969	0	0	-0.753324	-0.0561931	0.0556369	1.4318	-0.478919	1.44201	0.610191	0.557974	0	0	1.28711	-0.354299	0.950679	0.822975	0.991669	0	0
3.49	0.165851	1.39565	-1.80377	0.725355	1.08676	0.960427	-0.381145	-0.072157	-0.122691	0	0.0517213	0	0	-0.229471	0.054758	-0.352834	0.138839	0.0244909	0	0	-0.764909	-0.0588049	0.0552833	1.4299	-0.485276	1.42196	0.62503	0.570437	0	0	1.28781	-0.35841	0.94668	0.8334	0.997367	0	0
3.5	0.160508	1.39602	-1.79992	0.72506	1.08621	0.960382	-0.381261	-0.0715203	-0.121076	0	0.0518277	0	0	-0.22828	0.0533619	-0.354413	0.142188	0.0257492	0	0	-0.776006	-0.0613182	0.0544807	1.42575	-0.482016	1.39723	0.621815	0.583206	0	0	1.28772	-0.362262	0.944282	0.841232	1.00117	0	0
3.51	0.15252	1.39614	-1.79332	0.724785	1.08572	0.960344	-0.381617	-0.0704367	-0.119444	0	0.0520198	0	0	-0.22722	0.0514269	-0.356253	0.145895	0.0274738	0	0	-0.788041	-0.0633047	0.0537448	1.42216	-0.481054	1.37429	0.623365	0.597077	0	0	1.2867	-0.364652	0.939917	0.846386	1.00262	0	0
3.52	0.142317	1.39577	-1.78419	0.724558	1.08535	0.960335	-0.382483	-0.0689886	-0.117956	0	0.0524247	0	0	-0.226398	0.0491131	-0.358059	0.1501	0.0297814	0	0	-0.80117	-0.064728	0.0529131	1.41966	-0.481325	1.35535	0.628678	0.611892	0	0	1.28453	-0.365512	0.928103	0.852807	1.00002	0	0
3.53	0.13184	1.3953	-1.7742	0.724426	1.08504	0.960312	-0.383417	-0.0673733	-0.117046	0	0.0529451	0	0	-0.225403	0.0466665	-0.359234	0.154658	0.0324758	0	0	-0.814837	-0.0655689	0.0515703	1.41743	-0.481259	1.33286	0.635737	0.622591	0	0	1.28138	-0.36542	0.9045	0.865015	0.99697	0	0
